#!OML:ASF H:\Terrain\Patient Classification 1\Walking\liu\liu.ASF
:FULLY-SPECIFIED
:DEGREES
353
root 9.82614 17.301 23.9643 4.90534 0.84026 1.87042
lowerback -5.11742 -2.58987 -3.66298
upperback -0.555784 -3.30231 2.16913
thorax 2.63043 -1.69929 4.04859
lowerneck -22.2113 -2.64137 -10.4746
upperneck 26.8248 -2.82163 9.24147
head 12.9554 -1.0795 4.90705
rclavicle 1.91082e-014 -2.14687e-014
rhumerus -41.3858 11.2752 -86.2547
rradius 29.295
rwrist -15.1419
rhand -29.8146 -28.2849
rfingers 7.12502
rthumb -3.1384 -58.2416
lclavicle 1.91082e-014 -2.14687e-014
lhumerus -19.7989 -16.2688 88.2905
lradius 25.6613
lwrist 0.183584
lhand -12.5488 -25.2987
lfingers 7.12502
lthumb 13.5281 4.24189
rfemur -33.9997 -2.30012 21.4088
rtibia 52.8321
rfoot -14.3955 -8.7974
rtoes -18.443
lfemur -6.72933 -0.0777395 -27.1359
ltibia 21.6154
lfoot -17.4308 2.01588
ltoes -0.788498
354
root 9.82646 17.3049 24.1362 4.99753 1.05063 1.56634
lowerback -5.25369 -2.65065 -3.34208
upperback -0.525034 -3.39882 2.20773
thorax 2.73173 -1.74641 3.89302
lowerneck -22.1298 -2.68424 -10.4715
upperneck 26.7347 -2.90363 9.28775
head 12.9131 -1.10944 4.90581
rclavicle 1.1455e-014 -1.19271e-014
rhumerus -41.9967 11.0925 -86.1734
rradius 29.3857
rwrist -15.3517
rhand -28.0288 -30.5205
rfingers 7.12502
rthumb -1.41376 -60.4956
lclavicle 1.1455e-014 -1.19271e-014
lhumerus -18.7469 -17.0265 87.8297
lradius 26.4047
lwrist 0.523332
lhand -12.3011 -25.3717
lfingers 7.12502
lthumb 13.7669 4.15281
rfemur -34.2421 -1.60551 21.5589
rtibia 50.0705
rfoot -15.1606 -8.36744
rtoes -17.3784
lfemur -5.7682 -0.31179 -26.779
ltibia 20.8464
lfoot -17.6486 2.00929
ltoes -0.534843
355
root 9.83672 17.2911 24.3137 5.18755 1.57928 2.51097
lowerback -5.37867 -2.9327 -4.19679
upperback -0.570089 -3.71298 1.93407
thorax 2.82095 -1.91212 4.05708
lowerneck -22.3296 -2.66003 -10.3772
upperneck 26.7817 -2.87262 9.2471
head 12.967 -1.08829 4.88284
rclavicle 1.53313e-014 7.95139e-016
rhumerus -42.7485 10.9513 -86.113
rradius 29.5122
rwrist -15.5044
rhand -27.219 -31.1599
rfingers 7.12502
rthumb -0.63156 -61.1387
lclavicle 1.53313e-014 7.95139e-016
lhumerus -17.6937 -17.839 87.4268
lradius 26.9174
lwrist 1.17245
lhand -13.0098 -25.791
lfingers 7.12502
lthumb 13.0837 3.77857
rfemur -34.5477 -1.69578 20.2904
rtibia 47.2631
rfoot -16.0116 -7.68871
rtoes -17.7001
lfemur -4.81448 -0.359649 -27.7997
ltibia 20.0771
lfoot -17.925 1.49464
ltoes -0.363658
356
root 9.81707 17.2813 24.5111 5.23461 1.18008 1.87355
lowerback -5.6473 -2.8565 -3.87662
upperback -0.544783 -3.62827 2.16796
thorax 2.9843 -1.87156 4.11451
lowerneck -22.5049 -2.62188 -10.2133
upperneck 26.9167 -2.81134 9.06548
head 13.0447 -1.06737 4.79982
rclavicle 2.29348e-014 1.43125e-014
rhumerus -43.6868 11.2106 -86.2901
rradius 29.6314
rwrist -16.0397
rhand -29.3361 -27.8908
rfingers 7.12502
rthumb -2.6763 -57.8538
lclavicle 2.29348e-014 1.43125e-014
lhumerus -16.8031 -18.6521 87.0688
lradius 27.5177
lwrist 2.31374
lhand -13.6548 -26.0835
lfingers 7.12502
lthumb 12.462 3.52497
rfemur -34.8542 -0.0264919 20.7712
rtibia 44.2927
rfoot -16.3016 -8.50431
rtoes -19.9655
lfemur -3.49298 -0.138107 -27.0511
ltibia 18.7493
lfoot -18.1051 1.67497
ltoes -0.222793
357
root 9.838 17.2952 24.6914 5.40395 2.06025 2.17669
lowerback -5.65137 -3.1252 -3.86285
upperback -0.727524 -3.98293 2.02013
thorax 2.82179 -2.04014 3.92479
lowerneck -22.3791 -2.69058 -10.397
upperneck 26.9881 -2.90928 9.22355
head 13.0664 -1.11219 4.88074
rclavicle -2.92462e-014 7.15625e-015
rhumerus -44.6223 11.086 -86.2474
rradius 29.7171
rwrist -16.1158
rhand -32.9837 -22.1523
rfingers 7.12502
rthumb -6.1985 -52.0416
lclavicle -2.92462e-014 7.15625e-015
lhumerus -16.138 -19.434 86.7721
lradius 28.3451
lwrist 3.32842
lhand -13.6141 -25.9192
lfingers 7.12502
lthumb 12.5012 3.68684
rfemur -35.1296 -0.22367 20.1441
rtibia 41.4804
rfoot -16.4221 -8.63358
rtoes -20.2318
lfemur -2.00036 -0.243013 -27.2891
ltibia 16.9543
lfoot -17.873 0.889934
ltoes 0.32975
358
root 9.84525 17.2976 24.8592 5.57151 2.39855 2.61639
lowerback -5.70476 -3.21955 -4.20779
upperback -0.744685 -4.08245 1.91715
thorax 2.86028 -2.09339 3.99964
lowerneck -22.3739 -2.77824 -10.7549
upperneck 26.8126 -2.97304 9.48433
head 13.0129 -1.14031 5.02928
rclavicle 1.28713e-014 -7.95139e-016
rhumerus -45.2083 10.7336 -85.8375
rradius 29.8583
rwrist -15.7299
rhand -29.6183 -27.5797
rfingers 7.12502
rthumb -2.94887 -57.539
lclavicle 1.28713e-014 -7.95139e-016
lhumerus -15.0295 -19.6963 86.4652
lradius 28.9576
lwrist 3.71479
lhand -13.7079 -25.9475
lfingers 7.12502
lthumb 12.4108 3.66406
rfemur -35.4268 0.337138 19.27
rtibia 38.5867
rfoot -16.708 -8.44455
rtoes -18.3365
lfemur -0.621523 -0.05521 -27.6787
ltibia 15.2179
lfoot -17.5911 0.328321
ltoes 1.35977
359
root 9.84782 17.2848 25.0339 5.75649 2.41921 3.08414
lowerback -5.87812 -3.31133 -4.72347
upperback -0.787093 -4.16316 1.84487
thorax 2.95298 -2.14019 4.1978
lowerneck -22.2225 -2.64592 -10.5984
upperneck 26.6143 -2.80126 9.34512
head 12.8732 -1.06636 4.96393
rclavicle 4.36581e-014 -1.82882e-014
rhumerus -45.9393 10.7455 -85.6542
rradius 29.9586
rwrist -15.5294
rhand -29.7587 -26.6412
rfingers 7.12502
rthumb -3.08445 -56.5986
lclavicle 4.36581e-014 -1.82882e-014
lhumerus -14.1351 -19.6471 86.1846
lradius 29.5076
lwrist 3.96044
lhand -14.181 -26.1506
lfingers 7.12502
lthumb 11.9546 3.48802
rfemur -35.8836 1.33956 18.2815
rtibia 35.9495
rfoot -17.1742 -8.43897
rtoes -18.0931
lfemur 1.05502 -0.156793 -28.1765
ltibia 12.9099
lfoot -17.1175 0.24178
ltoes 3.7984
360
root 9.84574 17.2702 25.225 5.91183 2.51073 3.09599
lowerback -6.00225 -3.43242 -4.76969
upperback -0.985641 -4.31854 1.87554
thorax 2.83921 -2.21131 4.23966
lowerneck -21.9665 -2.52437 -10.6439
upperneck 26.6988 -2.70064 9.53159
head 12.8448 -1.00813 5.06532
rclavicle -1.95554e-014 2.38542e-014
rhumerus -46.9047 10.7883 -85.5926
rradius 29.9532
rwrist -15.2857
rhand -30.5867 -24.5764
rfingers 7.12502
rthumb -3.88403 -54.5207
lclavicle -1.95554e-014 2.38542e-014
lhumerus -13.8242 -19.8508 85.9459
lradius 30.2987
lwrist 4.61217
lhand -14.6019 -26.1855
lfingers 7.12502
lthumb 11.5487 3.47629
rfemur -36.2687 2.44076 17.779
rtibia 33.5254
rfoot -17.9696 -8.64228
rtoes -20.0583
lfemur 2.95551 -0.213263 -28.147
ltibia 10.3249
lfoot -16.4557 0.162234
ltoes 5.53921
361
root 9.84499 17.2559 25.4176 5.96116 2.74226 3.18867
lowerback -6.17191 -3.55467 -4.81775
upperback -0.970426 -4.46912 1.83804
thorax 2.96722 -2.28973 4.20168
lowerneck -22.0675 -2.57992 -10.7975
upperneck 26.7224 -2.77759 9.73221
head 12.8909 -1.03013 5.16261
rclavicle 9.86469e-015 -6.36111e-015
rhumerus -47.3478 10.4429 -85.2127
rradius 29.9526
rwrist -15.4478
rhand -30.3444 -24.2952
rfingers 7.12502
rthumb -3.65 -54.2436
lclavicle 9.86469e-015 -6.36111e-015
lhumerus -13.1102 -20.1244 85.543
lradius 31.0043
lwrist 5.22026
lhand -14.8533 -26.4019
lfingers 7.12502
lthumb 11.3062 3.27339
rfemur -36.5855 3.75737 16.9906
rtibia 31.3762
rfoot -18.9891 -9.05985
rtoes -20.9446
lfemur 5.29596 -0.0608684 -28.1611
ltibia 7.12245
lfoot -15.3685 0.0589249
ltoes 4.8584
